<?xml version="1.0" encoding="UTF-8" standalone="no"?>
<svg
   xmlns:osb="http://www.openswatchbook.org/uri/2009/osb"
   xmlns:dc="http://purl.org/dc/elements/1.1/"
   xmlns:cc="http://creativecommons.org/ns#"
   xmlns:rdf="http://www.w3.org/1999/02/22-rdf-syntax-ns#"
   xmlns:svg="http://www.w3.org/2000/svg"
   xmlns="http://www.w3.org/2000/svg"
   xmlns:xlink="http://www.w3.org/1999/xlink"
   xmlns:sodipodi="http://sodipodi.sourceforge.net/DTD/sodipodi-0.dtd"
   xmlns:inkscape="http://www.inkscape.org/namespaces/inkscape"
   version="1.0"
   width="59"
   height="64"
   viewBox="0 0 47.2 51.2"
   preserveAspectRatio="xMidYMid meet"
   id="svg2"
   inkscape:version="0.48.5 r10040"
   sodipodi:docname="warg-64.svg">
  <defs
     id="defs14">
    <linearGradient
       id="linearGradient5248"
       osb:paint="solid">
      <stop
         style="stop-color:#517fa4;stop-opacity:1;"
         offset="0"
         id="stop5250" />
    </linearGradient>
    <linearGradient
       inkscape:collect="always"
       xlink:href="#linearGradient5248"
       id="linearGradient5252"
       x1="13745.931"
       y1="12305.865"
       x2="23198.75"
       y2="12305.865"
       gradientUnits="userSpaceOnUse" />
    <linearGradient
       inkscape:collect="always"
       xlink:href="#linearGradient5248"
       id="linearGradient5254"
       gradientUnits="userSpaceOnUse"
       x1="13745.931"
       y1="12305.865"
       x2="23198.75"
       y2="12305.865" />
    <linearGradient
       inkscape:collect="always"
       xlink:href="#linearGradient5248"
       id="linearGradient5256"
       gradientUnits="userSpaceOnUse"
       x1="13745.931"
       y1="12305.865"
       x2="23198.75"
       y2="12305.865" />
  </defs>
  <sodipodi:namedview
     pagecolor="#ffffff"
     bordercolor="#666666"
     borderopacity="1"
     objecttolerance="10"
     gridtolerance="10"
     guidetolerance="10"
     inkscape:pageopacity="0"
     inkscape:pageshadow="2"
     inkscape:window-width="976"
     inkscape:window-height="621"
     id="namedview12"
     showgrid="false"
     inkscape:zoom="4.7872292"
     inkscape:cx="32.538828"
     inkscape:cy="21.169498"
     inkscape:window-x="0"
     inkscape:window-y="0"
     inkscape:window-maximized="0"
     inkscape:current-layer="svg2" />
  <metadata
     id="metadata4">
Created by potrace 1.11, written by Peter Selinger 2001-2013
<rdf:RDF>
  <cc:Work
     rdf:about="">
    <dc:format>image/svg+xml</dc:format>
    <dc:type
       rdf:resource="http://purl.org/dc/dcmitype/StillImage" />
    <dc:title></dc:title>
  </cc:Work>
</rdf:RDF>
</metadata>
  <g
     transform="matrix(0.00494153,0,0,-0.00478687,-67.79452,84.591198)"
     id="g6"
     style="fill:url(#linearGradient5252);fill-opacity:1;stroke:none">
    <path
       d="m 17907,17624 c -1,-1 -56,-5 -122,-9 -176,-10 -281,-18 -370,-31 -16,-2 -46,-6 -65,-9 -19,-2 -50,-7 -68,-10 -17,-3 -47,-8 -65,-10 -17,-3 -43,-7 -57,-10 -14,-3 -36,-7 -50,-10 -14,-3 -36,-7 -50,-10 -14,-3 -36,-7 -50,-10 -14,-3 -36,-7 -50,-10 -14,-3 -34,-8 -45,-10 -27,-6 -50,-12 -120,-30 -68,-18 -70,-18 -145,-40 -30,-9 -59,-17 -65,-19 -5,-1 -30,-9 -55,-16 -25,-7 -49,-14 -55,-16 -5,-1 -40,-14 -77,-27 -38,-14 -68,-23 -68,-21 0,3 -10,-2 -22,-10 -13,-8 -27,-16 -33,-17 -32,-5 -194,-69 -222,-87 -12,-7 -24,-13 -28,-13 -3,1 -22,-6 -43,-15 -20,-10 -39,-18 -42,-18 -3,-1 -15,-7 -27,-14 -13,-7 -23,-10 -23,-6 0,4 -8,1 -17,-8 -15,-12 -67,-39 -83,-43 -3,0 -23,-10 -45,-22 -22,-11 -44,-22 -50,-23 -5,-1 -17,-7 -25,-14 -8,-7 -36,-23 -62,-35 -27,-13 -50,-27 -54,-32 -3,-5 -9,-7 -14,-4 -5,3 -12,0 -15,-5 -4,-6 -17,-16 -28,-21 -12,-5 -35,-18 -52,-29 -16,-11 -37,-23 -45,-27 -8,-4 -35,-21 -60,-38 -25,-17 -52,-34 -60,-38 -19,-9 -53,-31 -125,-82 -32,-22 -77,-53 -100,-70 -86,-60 -289,-216 -355,-272 -2,-2 0,-7 5,-11 6,-4 12,-18 13,-32 2,-14 7,-29 12,-35 4,-5 11,-26 15,-45 4,-19 16,-53 26,-74 11,-22 19,-45 19,-51 0,-6 6,-17 13,-24 6,-6 12,-15 12,-19 1,-7 39,-80 60,-114 5,-9 20,-35 32,-57 27,-49 128,-174 180,-224 90,-86 123,-115 123,-109 0,4 8,-2 18,-14 9,-11 44,-38 77,-60 33,-21 62,-42 63,-46 2,-5 8,-8 13,-8 5,0 27,-11 49,-25 22,-14 46,-25 55,-25 8,0 15,-4 15,-10 0,-5 9,-10 20,-10 11,0 20,-4 20,-9 0,-5 11,-12 25,-15 14,-4 25,-11 25,-16 0,-6 9,-10 19,-10 11,0 38,-9 60,-20 23,-11 59,-29 81,-40 60,-29 107,-35 128,-18 9,8 24,18 32,21 8,4 33,18 55,32 43,26 103,55 115,55 4,0 13,6 19,14 7,8 28,17 48,21 21,4 55,16 76,27 21,10 41,17 44,15 2,-3 32,5 66,18 52,18 130,37 172,40 6,0 15,3 20,6 16,10 103,23 220,34 17,2 30,4 30,5 0,1 20,4 45,5 25,2 99,7 165,11 161,11 288,9 360,-6 102,-20 95,-11 78,-88 -16,-75 -34,-122 -45,-122 -5,0 -8,-4 -8,-9 0,-5 -4,-20 -9,-33 -5,-13 -10,-27 -11,-33 -2,-5 -11,-16 -22,-23 -10,-7 -16,-17 -13,-21 2,-5 -9,-21 -25,-37 -16,-16 -30,-34 -30,-40 0,-18 -180,-194 -289,-283 -35,-29 -72,-63 -82,-74 -10,-12 -18,-18 -19,-13 0,14 -40,-26 -40,-41 0,-7 6,-14 13,-15 26,-3 34,-5 92,-23 33,-10 64,-17 69,-16 6,1 19,-2 30,-7 40,-19 87,-35 110,-37 12,-2 43,-12 69,-24 49,-22 98,-42 107,-43 3,0 30,-14 60,-31 30,-17 72,-40 93,-51 51,-27 177,-153 177,-177 0,-9 5,-21 28,-65 15,-30 0,-198 -19,-209 -16,-11 -10,-45 9,-46 40,-3 263,8 337,16 17,1 59,6 95,10 36,3 81,10 100,14 19,5 50,9 69,10 19,1 39,5 45,9 6,4 20,8 31,9 22,2 29,3 95,23 25,8 48,14 52,14 3,1 10,4 14,9 4,4 13,7 19,7 16,0 72,26 110,50 17,11 39,24 50,29 12,5 27,16 34,25 7,9 19,16 25,16 12,0 53,67 45,74 -14,12 -139,93 -159,103 -94,46 -188,86 -206,88 -20,3 -58,18 -120,47 -12,6 -35,11 -50,12 -16,1 -33,4 -39,8 -5,3 -26,9 -45,13 -19,4 -39,10 -45,13 -5,3 -21,7 -35,8 -46,5 -145,27 -156,35 -5,5 -37,11 -70,13 -32,3 -74,10 -93,15 -19,6 -37,8 -42,6 -4,-3 -34,1 -66,8 -32,8 -74,13 -93,12 -19,-2 -53,1 -75,5 -53,12 -138,22 -200,25 -27,1 -75,6 -105,10 -59,9 -70,10 -140,14 -43,2 -44,3 -20,14 14,6 30,17 35,24 6,6 30,22 55,34 25,13 47,25 50,28 9,11 111,71 119,71 4,0 16,9 26,20 10,11 23,20 30,20 7,0 20,9 30,20 10,11 23,20 29,20 6,0 17,9 24,20 7,11 19,20 27,20 8,0 19,9 25,20 6,11 17,20 25,20 18,0 199,181 230,231 13,20 29,40 35,44 6,3 8,11 5,16 -4,5 -2,9 3,9 5,0 17,19 28,43 10,23 21,44 24,47 12,10 43,97 61,174 l 20,80 -28,22 c -15,12 -50,33 -78,45 -27,12 -78,35 -112,51 -34,15 -64,28 -67,28 -4,0 -25,9 -49,19 -23,11 -64,27 -92,36 -27,9 -57,20 -65,25 -9,4 -31,11 -50,15 -19,4 -39,10 -45,13 -5,4 -14,7 -20,7 -18,1 -100,25 -115,34 -8,4 -40,14 -70,21 -30,7 -59,16 -65,20 -5,4 -37,12 -70,19 -33,8 -64,16 -70,20 -13,7 -142,41 -351,90 -89,21 -166,41 -172,45 -6,3 -34,8 -64,11 -29,3 -64,7 -78,11 -14,3 -32,6 -40,6 -8,0 -34,4 -58,9 -24,5 -65,11 -92,14 -27,3 -70,9 -97,15 -26,6 -68,13 -93,16 -25,2 -61,7 -80,10 -19,3 -42,5 -50,6 -8,0 -33,4 -55,9 -22,4 -67,11 -99,14 -95,9 -97,16 -16,66 39,24 90,55 113,68 23,13 53,30 67,39 14,9 50,29 80,45 30,16 66,35 80,42 42,23 210,105 213,104 1,-1 25,9 52,21 84,38 107,47 180,75 39,15 79,31 90,35 19,8 64,23 75,25 3,0 16,7 30,15 14,7 25,12 25,11 0,-2 20,3 45,10 56,16 52,14 70,22 18,7 101,31 115,32 6,1 30,8 55,15 55,16 71,21 90,24 8,2 33,8 55,14 22,6 58,14 80,17 62,10 69,11 90,18 11,4 38,9 60,12 22,4 49,8 60,10 11,2 34,6 50,9 17,3 50,7 75,10 25,3 63,8 85,11 237,33 688,38 1050,10 17,-1 55,-7 85,-14 30,-6 73,-13 95,-15 55,-5 568,-116 580,-126 6,-4 46,-15 90,-25 44,-9 84,-21 90,-26 5,-5 17,-9 26,-9 16,0 114,-39 151,-60 10,-6 26,-10 36,-10 10,0 22,-4 28,-8 5,-5 41,-21 79,-37 39,-15 111,-47 160,-70 50,-23 105,-48 123,-56 17,-7 32,-17 32,-21 0,-5 6,-8 14,-8 8,0 42,-16 76,-35 34,-19 64,-35 66,-35 2,0 33,-18 69,-40 36,-22 70,-40 75,-40 6,0 10,-4 10,-10 0,-5 6,-10 13,-10 7,0 22,-7 32,-15 11,-9 63,-43 115,-77 94,-61 193,-132 259,-185 18,-16 41,-32 50,-37 9,-5 21,-14 27,-20 6,-6 30,-27 54,-46 213,-175 471,-432 617,-616 27,-34 55,-68 63,-76 8,-9 38,-46 65,-82 28,-37 67,-89 88,-116 20,-27 37,-51 37,-54 0,-2 29,-47 64,-100 81,-121 124,-189 154,-246 14,-25 37,-67 52,-95 60,-109 200,-396 200,-410 0,-5 7,-22 50,-120 8,-16 14,-32 14,-35 1,-3 4,-9 7,-15 5,-8 19,-54 23,-75 1,-3 5,-10 8,-16 4,-6 19,-49 33,-95 15,-46 30,-91 35,-100 5,-9 12,-34 16,-55 3,-22 10,-43 14,-49 4,-5 13,-32 19,-60 6,-27 13,-54 15,-60 16,-56 30,-115 60,-260 19,-93 37,-188 40,-210 3,-22 7,-51 10,-65 3,-14 7,-54 11,-90 3,-36 8,-74 11,-85 3,-11 7,-45 8,-75 2,-30 7,-102 12,-160 8,-119 9,-509 1,-615 -14,-186 -19,-233 -26,-265 -4,-20 -5,-44 -1,-54 3,-10 -2,-57 -11,-105 -9,-47 -21,-113 -26,-146 -15,-97 -76,-370 -83,-375 -4,-3 -15,-43 -25,-90 -10,-47 -26,-100 -36,-118 -11,-18 -19,-41 -19,-50 0,-9 -7,-30 -15,-45 -8,-15 -17,-43 -21,-63 -3,-19 -10,-37 -15,-40 -5,-3 -9,-15 -9,-28 0,-12 -3,-26 -7,-30 -11,-11 -43,-99 -43,-118 0,-10 -4,-18 -10,-18 -5,0 -10,-9 -10,-20 0,-11 -4,-20 -10,-20 -5,0 -10,-7 -10,-15 0,-8 -4,-23 -9,-33 -29,-54 -71,-153 -71,-166 0,-9 -4,-16 -10,-16 -5,0 -10,-9 -10,-19 0,-11 -3,-21 -7,-23 -5,-1 -32,-50 -61,-108 -71,-140 -123,-234 -132,-240 -4,-3 -10,-15 -14,-27 -4,-13 -11,-23 -16,-23 -4,0 -11,-8 -14,-17 -11,-32 -200,-319 -222,-338 -6,-5 -21,-27 -33,-47 -13,-21 -26,-38 -31,-38 -5,0 -11,-8 -14,-17 -4,-10 -21,-35 -39,-55 -17,-20 -41,-48 -52,-62 -22,-29 -42,-53 -130,-152 -85,-97 -340,-351 -405,-404 -30,-24 -65,-55 -77,-70 -12,-14 -22,-21 -23,-16 0,5 -10,-3 -21,-18 -12,-15 -24,-25 -26,-22 -3,3 -14,-6 -25,-19 -11,-14 -25,-25 -31,-25 -7,0 -18,-9 -25,-20 -7,-11 -17,-20 -23,-20 -6,0 -44,-27 -84,-60 -40,-33 -76,-60 -79,-60 -2,0 -33,-19 -68,-42 -35,-24 -71,-47 -80,-53 -8,-5 -26,-17 -39,-26 -57,-39 -167,-107 -199,-123 -19,-10 -71,-37 -115,-61 -76,-42 -244,-128 -255,-130 -3,-1 -22,-9 -42,-19 -21,-9 -41,-17 -45,-17 -5,-1 -17,-6 -28,-12 -11,-6 -22,-12 -25,-12 -3,0 -15,-6 -27,-13 -13,-7 -23,-10 -23,-7 0,3 -11,-2 -25,-11 -14,-9 -25,-13 -25,-10 0,4 -11,-1 -25,-10 -14,-9 -25,-13 -25,-10 0,4 -10,1 -22,-6 -13,-6 -27,-13 -33,-14 -5,-1 -41,-14 -80,-28 -38,-14 -72,-27 -75,-27 -9,-3 -35,-11 -60,-19 -21,-8 -57,-18 -130,-37 -8,-3 -22,-6 -30,-7 -8,-2 -22,-6 -30,-9 -8,-3 -28,-9 -45,-13 -16,-4 -37,-9 -45,-11 -8,-3 -22,-6 -30,-7 -8,-2 -33,-8 -55,-14 -22,-6 -58,-14 -80,-17 -76,-12 -84,-13 -92,-18 -5,-3 -29,-8 -53,-11 -25,-3 -56,-8 -70,-11 -14,-3 -43,-8 -65,-10 -68,-8 -118,-14 -160,-19 -39,-5 -121,-12 -255,-21 -226,-15 -689,2 -855,31 -171,29 -630,127 -660,140 -16,7 -46,15 -65,19 -52,9 -175,49 -178,57 -2,5 -14,8 -26,8 -12,0 -26,4 -31,8 -6,5 -26,15 -45,22 -19,7 -51,20 -70,28 -40,16 -70,28 -102,41 -55,21 -77,30 -137,60 -35,17 -70,31 -77,31 -8,0 -14,5 -14,10 0,6 -8,10 -18,10 -10,0 -22,4 -27,9 -6,5 -53,31 -105,58 -52,28 -111,60 -130,71 -19,12 -54,31 -77,43 -24,13 -43,26 -43,30 0,4 -11,10 -25,13 -14,4 -25,11 -25,16 0,6 -4,10 -9,10 -6,0 -39,20 -75,45 -37,25 -68,45 -71,45 -5,0 -37,25 -60,48 -8,6 -17,12 -22,12 -5,0 -16,8 -24,18 -9,9 -26,24 -39,32 -36,23 -163,121 -181,139 -10,9 -36,32 -60,51 -212,173 -499,479 -715,765 -71,93 -114,155 -114,162 0,5 46,31 103,57 110,52 122,57 212,92 11,4 27,9 35,10 8,1 42,12 75,24 33,12 69,24 80,27 99,22 369,24 410,2 6,-3 20,-4 33,-3 12,0 22,-2 22,-6 0,-4 19,-7 42,-8 23,-1 44,-5 47,-10 6,-6 13,-8 63,-16 10,-1 21,-5 24,-9 4,-4 17,-7 28,-7 12,0 34,-7 50,-15 16,-8 34,-14 40,-14 6,1 20,-1 31,-5 11,-4 49,-18 85,-31 36,-13 79,-27 95,-31 17,-4 35,-9 40,-13 12,-6 24,-10 65,-18 16,-3 30,-10 30,-16 0,-6 3,-7 6,-4 4,3 16,1 28,-5 11,-7 26,-12 31,-13 6,0 20,-6 31,-12 12,-7 24,-9 28,-6 3,3 6,2 6,-4 0,-5 18,-16 40,-23 23,-8 45,-20 49,-28 4,-7 10,-12 13,-10 7,5 78,-35 78,-44 0,-5 6,-8 14,-8 8,0 30,-14 48,-30 18,-16 29,-30 24,-30 -4,0 6,-12 23,-26 17,-14 30,-28 29,-32 -2,-4 6,-19 16,-35 24,-35 30,-190 9,-223 -13,-20 -11,-22 34,-30 71,-14 266,-8 378,11 17,2 48,7 70,9 86,10 132,18 190,32 33,8 71,17 85,20 14,3 30,7 35,8 8,2 79,23 105,31 19,6 48,18 64,27 10,5 27,11 39,13 18,4 213,99 277,136 14,8 44,29 67,47 23,17 45,32 50,33 4,0 28,25 53,55 25,29 50,60 57,68 19,22 5,26 -39,10 -45,-15 -98,-19 -98,-6 0,5 -6,9 -12,10 -24,2 -63,9 -78,15 -15,6 -120,35 -150,41 -67,15 -80,20 -80,27 0,5 -6,9 -14,9 -8,0 -31,9 -53,19 -21,11 -63,31 -93,46 -30,15 -77,39 -105,55 -27,16 -68,39 -89,51 -22,12 -46,28 -54,35 -7,8 -17,12 -22,9 -4,-3 -10,2 -14,10 -3,8 -11,15 -18,15 -8,0 -21,8 -29,18 -9,9 -45,42 -79,72 -35,30 -76,66 -91,80 -15,14 -49,38 -76,54 -26,17 -52,36 -56,43 -4,7 -15,13 -22,13 -8,0 -15,7 -15,16 0,8 -4,13 -9,10 -5,-3 -29,10 -54,29 -25,19 -51,35 -56,35 -6,0 -11,3 -11,8 0,9 -61,43 -74,41 -5,0 -13,6 -18,15 -5,9 -18,16 -28,16 -10,0 -22,5 -25,10 -3,6 -14,10 -23,10 -9,0 -28,9 -42,20 -14,11 -35,20 -47,20 -13,0 -23,4 -23,9 0,5 -15,12 -32,16 -18,4 -35,9 -38,10 -3,1 -13,5 -22,8 -10,4 -26,10 -35,14 -10,4 -22,8 -28,9 -5,1 -13,3 -17,4 -5,1 -11,3 -15,4 -5,1 -43,10 -86,20 -42,9 -87,18 -100,20 -13,1 -27,5 -33,9 -6,3 -19,4 -30,3 -10,-2 -23,-1 -29,2 -16,10 -176,20 -195,12 -3,-1 -27,-3 -55,-5 -27,-2 -50,-4 -50,-5 0,-1 -20,-3 -45,-6 -25,-2 -52,-7 -60,-11 -19,-8 -20,-8 -55,-17 -16,-4 -37,-10 -45,-13 -8,-4 -19,-7 -25,-8 -5,0 -23,-6 -38,-13 -15,-6 -39,-15 -53,-18 -13,-3 -27,-10 -30,-15 -3,-5 -12,-9 -19,-9 -17,0 -102,-40 -170,-80 -27,-17 -60,-34 -72,-39 -11,-6 -24,-15 -28,-21 -4,-6 -17,-16 -28,-21 -51,-23 -257,-176 -257,-191 0,-4 -5,-8 -10,-8 -6,0 -27,-18 -49,-40 -21,-22 -43,-40 -49,-40 -6,0 -13,-9 -17,-19 -3,-11 -14,-23 -23,-26 -9,-3 -33,-26 -52,-52 -19,-25 -46,-59 -60,-75 -47,-53 -50,-57 -50,-67 0,-6 -9,-15 -20,-21 -11,-6 -20,-17 -20,-25 0,-8 -9,-20 -20,-27 -11,-7 -20,-18 -20,-25 0,-7 -4,-13 -10,-13 -5,0 -10,-7 -10,-16 0,-9 -11,-29 -25,-46 -14,-16 -25,-36 -25,-43 0,-7 -6,-20 -13,-27 -35,-36 -123,-249 -96,-233 12,8 39,-25 144,-171 158,-219 575,-655 786,-821 19,-15 43,-36 53,-45 10,-10 20,-18 24,-18 4,0 23,-15 43,-33 20,-17 47,-39 60,-47 12,-8 30,-22 39,-31 9,-8 24,-18 33,-22 9,-3 17,-11 17,-17 0,-5 5,-10 11,-10 8,0 64,-38 114,-78 6,-4 28,-19 50,-32 22,-13 42,-27 45,-30 7,-8 191,-120 255,-156 28,-15 66,-36 85,-47 82,-47 305,-157 317,-157 7,0 13,-4 13,-10 0,-5 9,-10 19,-10 11,0 23,-5 26,-10 3,-6 15,-10 26,-10 10,0 19,-4 19,-10 0,-5 7,-10 15,-10 8,0 23,-4 33,-9 18,-9 38,-18 112,-46 70,-27 94,-37 110,-45 9,-4 30,-11 48,-14 17,-4 34,-12 37,-17 4,-5 16,-9 28,-9 12,0 34,-6 48,-14 14,-7 43,-16 65,-20 21,-5 44,-11 49,-16 6,-4 37,-13 70,-20 33,-7 62,-15 65,-19 6,-9 498,-115 524,-113 11,0 46,-5 79,-13 33,-8 64,-12 69,-9 4,3 25,1 45,-5 21,-5 74,-12 118,-16 44,-3 114,-9 155,-12 160,-14 676,-7 830,11 19,3 64,7 100,11 67,7 91,10 150,19 19,3 53,8 75,12 22,3 49,7 60,10 11,2 31,6 45,8 14,2 39,7 55,11 48,10 68,15 95,19 29,6 65,13 100,22 14,3 32,7 40,9 8,1 22,5 30,8 8,3 29,9 45,13 17,4 35,8 40,10 58,17 163,46 175,48 8,1 26,8 40,16 14,7 27,13 30,12 3,-1 23,4 45,10 50,14 46,13 70,22 11,5 56,22 100,38 44,17 98,38 120,48 33,15 72,29 95,35 8,3 81,35 140,63 30,14 57,26 60,27 3,0 25,12 50,25 25,13 47,25 50,25 3,0 23,10 45,22 22,11 43,20 46,19 4,0 15,6 25,14 11,8 28,20 39,26 11,6 40,21 65,34 25,14 53,31 63,39 9,8 17,10 17,6 0,-5 11,2 25,15 14,13 25,20 25,15 0,-5 10,1 23,12 12,11 29,23 37,27 23,10 73,43 195,126 12,8 41,28 64,43 23,15 61,42 85,60 24,18 56,41 71,52 33,23 242,193 266,215 8,8 53,49 99,90 98,88 290,281 375,376 33,37 69,78 80,90 11,12 36,42 55,65 19,24 45,54 58,68 12,13 22,27 22,30 0,3 15,22 33,42 17,20 39,46 47,59 8,12 39,54 68,94 68,90 231,336 243,367 4,9 23,40 41,70 19,30 38,61 42,69 3,8 24,47 46,85 48,85 140,273 140,286 0,5 5,9 10,9 6,0 10,6 10,14 0,8 9,31 19,53 23,46 39,83 81,188 43,108 51,127 61,147 5,10 9,23 9,29 0,6 6,25 13,42 8,18 22,59 32,92 10,33 24,74 31,90 6,17 17,48 23,70 5,22 17,67 26,100 9,33 20,69 25,80 13,26 99,421 110,505 25,175 32,228 35,265 3,22 7,58 9,80 6,52 17,188 21,261 5,79 5,480 0,574 -4,79 -13,202 -20,260 -2,19 -7,58 -9,85 -7,64 -14,116 -26,185 -6,30 -13,75 -16,100 -5,41 -68,344 -79,380 -2,8 -13,53 -25,100 -11,47 -28,105 -36,130 -9,25 -17,50 -18,55 -2,6 -9,30 -16,55 -7,25 -15,50 -16,55 -1,6 -17,48 -34,95 -17,47 -36,99 -41,115 -6,17 -15,38 -20,49 -6,10 -12,26 -14,36 -2,10 -12,37 -23,61 -20,47 -28,68 -31,84 -2,6 -10,18 -18,28 -9,9 -13,17 -10,17 4,0 -4,21 -17,48 -40,77 -115,236 -117,247 -1,6 -14,29 -30,52 -16,23 -29,44 -29,47 0,7 -95,173 -122,215 -10,14 -21,33 -24,41 -10,23 -173,264 -239,354 -44,60 -242,305 -294,364 -78,89 -337,348 -418,419 -37,32 -82,72 -100,88 -18,17 -44,39 -59,50 -14,11 -31,25 -37,30 -19,17 -163,129 -187,145 -20,14 -49,36 -77,60 -7,5 -15,10 -18,10 -6,0 -66,40 -75,51 -3,3 -23,16 -45,29 -22,13 -42,27 -45,30 -3,4 -12,10 -20,14 -22,10 -52,28 -85,52 -17,12 -55,35 -85,51 -30,17 -80,45 -110,62 -30,17 -84,45 -120,63 -36,18 -66,36 -68,41 -2,4 -12,7 -23,7 -10,0 -19,5 -19,10 0,6 -7,10 -15,10 -8,0 -29,8 -47,18 -30,16 -108,52 -198,89 -19,8 -43,19 -52,24 -10,5 -25,9 -33,9 -8,0 -15,5 -15,10 0,6 -8,10 -19,10 -17,0 -56,13 -116,40 -11,4 -29,11 -40,13 -11,3 -51,17 -89,31 -38,14 -75,26 -83,26 -8,0 -29,6 -46,14 -18,8 -57,20 -87,27 -30,6 -62,16 -70,20 -20,11 -428,99 -510,110 -36,4 -101,13 -145,19 -44,6 -98,13 -120,15 -22,2 -61,6 -86,9 -112,12 -593,28 -602,20 z"
       id="path8"
       inkscape:connector-curvature="0"
       style="fill:url(#linearGradient5254);fill-opacity:1" />
    <path
       d="m 17623,13955 c -3,-9 1,-23 8,-33 8,-9 32,-52 53,-94 23,-45 44,-75 50,-71 6,3 8,3 4,-2 -4,-4 8,-38 27,-76 19,-38 35,-75 35,-83 0,-8 7,-21 15,-30 9,-8 15,-17 14,-18 -3,-4 10,-49 23,-78 16,-37 38,-94 44,-115 2,-5 15,-41 29,-80 21,-59 56,-195 69,-270 14,-79 29,-199 30,-245 1,-31 6,-61 10,-68 4,-7 3,-12 -3,-12 -5,0 -9,-19 -8,-43 0,-23 -2,-48 -7,-55 -4,-7 -6,-16 -3,-18 3,-3 -1,-31 -9,-62 -8,-31 -16,-65 -19,-75 -17,-72 -38,-77 -54,-13 -6,24 -17,49 -26,56 -8,7 -13,16 -10,20 2,4 -4,16 -15,27 -10,12 -16,24 -13,27 4,3 2,6 -3,6 -5,0 -18,15 -29,33 -10,17 -23,37 -27,42 -5,6 -25,31 -45,58 -19,26 -40,47 -45,47 -4,0 -13,11 -18,25 -5,14 -16,28 -25,31 -8,3 -37,27 -64,53 -58,55 -87,80 -161,140 -30,25 -56,48 -58,53 -2,4 -8,8 -14,8 -9,0 -102,72 -118,91 -3,3 -12,9 -20,12 -8,4 -26,15 -40,25 -14,9 -43,28 -63,40 -20,13 -37,26 -37,29 0,2 5,1 10,-2 6,-4 10,5 10,19 0,14 6,43 14,63 8,21 25,73 37,115 13,42 26,75 29,73 3,-2 17,20 30,48 14,29 49,75 78,104 58,58 64,73 28,73 -24,0 -123,-36 -140,-52 -6,-4 -18,-8 -27,-8 -9,0 -22,-7 -29,-15 -6,-8 -15,-13 -18,-12 -8,2 -104,-46 -147,-74 -16,-10 -38,-22 -47,-25 -10,-4 -18,-10 -18,-15 0,-6 -8,-13 -19,-17 -10,-4 -54,-38 -97,-77 -106,-96 -114,-103 -114,-116 0,-6 -7,-9 -15,-6 -8,4 -17,1 -21,-4 -3,-6 -15,-8 -26,-5 -12,2 -39,-1 -62,-9 -22,-8 -70,-21 -106,-30 -36,-8 -69,-17 -75,-19 -5,-1 -30,-8 -55,-15 -40,-11 -233,-74 -270,-88 -8,-4 -20,-5 -27,-4 -6,1 -14,-3 -18,-9 -3,-5 -16,-10 -29,-10 -12,0 -26,-3 -30,-7 -6,-7 -24,-12 -58,-17 -9,-1 -23,-8 -31,-14 -8,-7 -19,-12 -23,-11 -9,2 -24,-3 -71,-22 -13,-5 -33,-13 -45,-18 -13,-5 -36,-14 -53,-22 -16,-7 -32,-13 -35,-14 -30,-10 -106,-43 -174,-76 -33,-16 -65,-29 -72,-29 -7,0 -14,-3 -16,-7 -4,-11 -65,-53 -76,-53 -5,0 -19,-11 -32,-25 -12,-13 -26,-22 -30,-20 -4,3 -13,-2 -20,-10 -7,-8 -18,-15 -25,-15 -7,0 -18,-7 -25,-15 -7,-9 -32,-25 -54,-35 -23,-11 -55,-32 -73,-47 -17,-15 -39,-35 -50,-44 -35,-30 -153,-186 -153,-202 0,-15 33,-13 66,4 21,10 45,19 54,19 9,0 21,5 27,11 6,6 17,12 24,13 8,2 22,6 32,9 9,4 25,10 35,14 9,3 22,7 27,7 15,2 57,16 80,27 11,5 47,15 80,23 33,8 85,22 115,31 30,9 64,18 75,19 11,2 20,5 20,6 0,1 9,4 20,6 11,2 38,8 61,13 23,6 59,13 80,16 54,9 67,11 84,18 8,3 22,5 30,6 8,0 31,2 50,6 19,3 49,7 65,9 17,2 37,6 45,9 8,3 22,5 30,5 8,0 40,3 70,7 30,3 112,8 183,10 120,3 127,2 127,-16 0,-10 -4,-19 -9,-19 -8,0 -14,-26 -23,-100 -2,-14 -6,-27 -10,-30 -7,-6 -19,-94 -23,-171 -1,-31 -4,-60 -7,-65 -6,-14 -2,-217 5,-239 7,-18 61,-49 162,-91 22,-9 58,-25 80,-35 68,-30 108,-47 170,-69 33,-11 68,-25 77,-31 10,-5 25,-9 33,-9 8,0 15,-5 15,-11 0,-5 4,-8 9,-5 10,7 199,-31 224,-45 10,-5 22,-7 27,-4 6,4 10,2 10,-3 0,-6 16,-13 35,-16 19,-4 35,-11 35,-15 0,-5 12,-12 28,-16 15,-3 35,-14 45,-22 9,-9 20,-13 23,-10 3,3 24,-5 45,-19 21,-13 43,-24 48,-24 5,0 14,-7 21,-15 7,-8 16,-12 21,-9 5,3 9,0 9,-6 0,-6 10,-15 23,-20 24,-11 33,-16 117,-71 30,-20 58,-37 63,-38 4,0 23,-16 42,-36 20,-19 37,-34 39,-32 5,3 56,-35 75,-55 8,-10 22,-18 30,-18 8,0 12,-3 8,-6 -7,-7 17,-34 30,-34 5,0 15,-9 23,-20 8,-11 18,-20 23,-20 10,0 41,-28 189,-172 61,-60 115,-108 119,-108 5,0 9,-5 9,-11 0,-6 21,-33 48,-60 57,-60 72,-76 74,-86 3,-13 26,-33 37,-33 6,0 11,-6 11,-14 0,-8 15,-34 33,-58 71,-95 117,-170 110,-180 -2,-5 0,-8 6,-8 5,0 13,-10 17,-22 4,-13 11,-26 17,-30 6,-3 12,-14 13,-23 1,-9 10,-25 20,-36 9,-10 13,-19 9,-19 -4,0 0,-9 10,-20 10,-11 15,-20 11,-20 -4,0 0,-12 8,-27 16,-31 29,-63 31,-78 1,-5 5,-17 8,-25 22,-51 -2,-248 -32,-258 -6,-2 -11,-12 -11,-23 0,-10 -4,-19 -10,-19 -5,0 -10,-7 -10,-15 0,-19 -25,-58 -62,-99 -16,-17 -28,-35 -28,-41 0,-6 -9,-16 -20,-23 -35,-22 -25,-42 19,-38 21,1 43,6 50,10 6,4 24,10 39,12 15,3 28,9 30,14 2,5 9,7 17,4 7,-3 16,-1 20,5 3,6 14,11 24,11 9,0 22,5 29,12 6,6 17,13 24,14 15,2 56,20 78,33 8,5 40,19 70,32 30,13 73,38 96,56 23,18 46,33 52,33 6,0 45,34 87,76 73,72 101,116 113,174 10,53 8,174 -4,209 -25,72 -278,554 -310,592 -8,8 -14,20 -14,26 0,6 -7,16 -15,23 -8,7 -12,16 -9,21 3,5 1,9 -4,9 -5,0 -15,13 -22,29 -6,16 -20,37 -31,47 -10,9 -19,23 -19,30 0,8 -10,25 -22,39 -12,14 -23,33 -24,42 -2,10 -10,23 -18,29 -9,6 -16,17 -16,23 0,13 -50,84 -62,89 -5,2 -8,10 -8,18 0,8 -4,14 -9,14 -5,0 -14,14 -20,30 -5,17 -15,30 -20,30 -6,0 -11,5 -11,10 0,6 -9,20 -20,32 -10,12 -17,26 -13,31 3,6 2,7 -4,4 -5,-4 -16,6 -24,21 -16,31 -20,37 -54,75 -14,15 -25,32 -25,38 0,5 -7,9 -16,9 -8,0 -13,4 -9,9 3,6 -3,18 -13,28 -45,45 -63,147 -34,195 9,15 19,28 22,28 3,0 14,20 25,45 11,25 23,45 26,45 3,0 12,18 19,40 7,22 17,40 22,40 5,0 8,6 7,13 -1,6 7,32 19,57 12,25 22,51 22,58 0,6 4,12 8,12 11,0 35,106 28,119 -4,5 -9,36 -12,68 -4,32 -10,65 -15,74 -5,9 -6,18 -4,21 3,2 0,20 -6,39 -6,19 -12,43 -13,54 -5,30 -27,108 -34,120 -4,6 -7,15 -7,20 -1,6 -7,24 -14,40 -7,17 -22,53 -33,80 -11,28 -29,67 -39,88 -11,22 -19,44 -19,50 0,17 -61,130 -74,139 -6,4 -8,8 -4,8 4,0 -6,23 -22,50 -17,28 -30,53 -30,55 0,3 -7,13 -16,23 -8,9 -45,61 -80,115 -104,157 -167,234 -326,400 -16,16 -28,31 -28,34 0,3 -18,23 -40,44 -42,41 -86,52 -97,24 z m -525,-1334 c 121,-98 174,-180 192,-299 10,-63 9,-148 -1,-155 -2,-2 -23,-9 -45,-16 -82,-26 -228,21 -299,96 -35,38 -81,119 -94,168 -17,65 3,154 46,205 67,78 104,79 201,1 z"
       id="path10"
       inkscape:connector-curvature="0"
       style="fill:url(#linearGradient5256);fill-opacity:1" />
  </g>
</svg>
